<svg xmlns:rdf="http://www.w3.org/1999/02/22-rdf-syntax-ns#" xmlns="http://www.w3.org/2000/svg" version="1.1" xmlns:cc="http://creativecommons.org/ns#" xmlns:xlink="http://www.w3.org/1999/xlink" viewBox="0 0 128 128" xmlns:dc="http://purl.org/dc/elements/1.1/">
<defs>
<style>.cls-1{fill:#237eb8;}.cls-2{fill:url(#b);}.cls-3{fill:url(#c);}.cls-4{fill:url(#a);}.cls-5{fill:url(#l);}.cls-6{fill:url(#k);}.cls-7{fill:url(#g);}.cls-8{fill:url(#d);}.cls-9{fill:url(#j);}.cls-10{fill:url(#e);}.cls-11{fill:url(#i);}.cls-12{fill:url(#f);}.cls-13{fill:url(#h);}</style>
<linearGradient id="b" y2="35.55" gradientUnits="userSpaceOnUse" y1="35.55" x2="97.03" x1="63.58">
<stop stop-color="#c9eaff" offset="0"/>
<stop stop-color="#c0e5fc" offset=".17"/>
<stop stop-color="#a6d6f5" offset=".45"/>
<stop stop-color="#7dbeea" offset=".8"/>
<stop stop-color="#64b0e3" offset=".99"/>
</linearGradient>
<linearGradient id="c" y2="69.11" gradientUnits="userSpaceOnUse" y1="69.11" x2="97.06" x1="63.58">
<stop stop-color="#6fa3d4" offset="0"/>
<stop stop-color="#669ed1" offset=".21"/>
<stop stop-color="#4c92c7" offset=".55"/>
<stop stop-color="#237eb8" offset=".99"/>
</linearGradient>
<linearGradient id="a" y2="25.65" gradientUnits="userSpaceOnUse" y1="76.15" x2="61.64" x1="119.64">
<stop stop-color="#02347e" offset="0"/>
<stop stop-color="#063d85" offset=".21"/>
<stop stop-color="#125799" offset=".57"/>
<stop stop-color="#237eb8" offset="1"/>
</linearGradient>
<linearGradient id="l" x1="35.17" xlink:href="#a" y1="126.54" x2="6.67" y2="72.04"/>
<linearGradient id="k" x1="-15.76" xlink:href="#a" y1="47.75" x2="34.74" y2="45.25"/>
<linearGradient id="g" x1="-2.69" xlink:href="#b" y1="-5.5" x2="48.31" y2="68"/>
<linearGradient id="d" y2="46.91" gradientUnits="userSpaceOnUse" y1="84.91" x2=".63" x1="19.29">
<stop stop-color="#64b0e3" offset="0"/>
<stop stop-color="#5ba9dd" offset=".23"/>
<stop stop-color="#4195cc" offset=".62"/>
<stop stop-color="#237eb8" offset=".99"/>
</linearGradient>
<linearGradient id="j" x1="80.1" xlink:href="#a" y1="69.71" x2="66.1" y2="121.05"/>
<linearGradient id="e" x1="9.44" xlink:href="#c" y1="51.86" x2="51.03" y2="51.86"/>
<linearGradient id="i" x1="104.89" xlink:href="#a" y1="124.75" x2="37.25" y2="43.3"/>
<linearGradient id="f" x1="-12.33" xlink:href="#b" y1="4.34" x2="15.67" y2="43.67"/>
<linearGradient id="h" x1="40.81" xlink:href="#a" y1="85.24" x2="-5.86" y2="67.24"/>
<linearGradient id="o" y2="35.55" xlink:href="#b" gradientUnits="userSpaceOnUse" x2="97.03" y1="35.55" x1="63.58"/>
<linearGradient id="n" y2="69.11" xlink:href="#c" gradientUnits="userSpaceOnUse" x2="97.06" y1="69.11" x1="63.58"/>
<linearGradient id="m" y2="25.65" xlink:href="#a" gradientUnits="userSpaceOnUse" x2="61.64" y1="76.15" x1="119.64"/>
</defs>
<g transform="matrix(.94787 0 0 .94787 17.957 -9.6e-8)" data-name="Layer 2">
<g data-name="Ebene 1">
<polygon points="97.06 94.12 96.94 18.94 96.94 18.94 63.58 52.27" fill="#237eb8" class="cls-1"/>
<polygon points="96.78 134.7 96.78 96.78 57.78 57.78 57.78 57.78 57.78 57.78 14.45 14.44 0 0 0 115.93 39 76.92" fill="#237eb8" class="cls-1"/>
<polygon points="88.11 44.11 97.03 18.82 97.03 18.82 63.58 52.27" fill="url(#o)" class="cls-2"/>
<polygon points="88.11 44.11 97.06 94.12 97.06 94.12 63.58 52.27" fill="url(#n)" class="cls-3"/>
<polygon points="88.11 44.11 97.03 18.82 97.03 18.82 97.06 94.12" fill="url(#m)" class="cls-4"/>
<polygon points="0.11 93.94 0 116.22 0 116.22 38.98 76.91" fill="url(#l)" class="cls-5"/>
<polygon points="9.44 32.78 0 0 0 0 0.11 93.94" fill="url(#k)" class="cls-6"/>
<polygon points="0 0 51.03 51.11 51.03 51.11 9.44 32.78" fill="url(#g)" class="cls-7"/>
<polygon points="0.11 93.94 38.98 76.91 38.98 76.91 5.66 43.57" fill="url(#d)" class="cls-8"/>
<polygon points="97.15 97.15 97.03 135.04 97.03 135.04 45.03 70.94" fill="url(#j)" class="cls-9"/>
<polygon points="9.44 32.78 51.03 51.11 51.03 51.11 45.03 70.94" fill="url(#e)" class="cls-10"/>
<polygon points="51.03 51.11 97.15 97.15 97.15 97.15 45.03 70.94" fill="url(#i)" class="cls-11"/>
<polygon points="45.03 70.94 9.44 32.78 9.44 32.78 5.66 43.57" fill="url(#f)" class="cls-12"/>
<polygon points="97.03 135.04 45.03 70.94 45.03 70.94 5.66 43.57" fill="url(#h)" class="cls-13"/>
</g>
</g>
</svg>
