<svg xmlns="http://www.w3.org/2000/svg" xmlns:xlink="http://www.w3.org/1999/xlink" viewBox="0 0 128 128" class="main-icon"><defs><style>.cls-1{fill:#237eb8;}.cls-2{fill:url(#b);}.cls-3{fill:url(#c);}.cls-4{fill:url(#a);}.cls-5{fill:url(#l);}.cls-6{fill:url(#k);}.cls-7{fill:url(#g);}.cls-8{fill:url(#d);}.cls-9{fill:url(#j);}.cls-10{fill:url(#e);}.cls-11{fill:url(#i);}.cls-12{fill:url(#f);}.cls-13{fill:url(#h);}</style><linearGradient id="b" x1="63.58" x2="97.03" y1="35.55" y2="35.55" gradientUnits="userSpaceOnUse"><stop stop-color="#c9eaff" offset="0"/><stop stop-color="#c0e5fc" offset=".17"/><stop stop-color="#a6d6f5" offset=".45"/><stop stop-color="#7dbeea" offset=".8"/><stop stop-color="#64b0e3" offset=".99"/></linearGradient><linearGradient id="c" x1="63.58" x2="97.06" y1="69.11" y2="69.11" gradientUnits="userSpaceOnUse"><stop stop-color="#6fa3d4" offset="0"/><stop stop-color="#669ed1" offset=".21"/><stop stop-color="#4c92c7" offset=".55"/><stop stop-color="#237eb8" offset=".99"/></linearGradient><linearGradient id="a" x1="119.64" x2="61.64" y1="76.15" y2="25.65" gradientUnits="userSpaceOnUse"><stop stop-color="#02347e" offset="0"/><stop stop-color="#063d85" offset=".21"/><stop stop-color="#125799" offset=".57"/><stop stop-color="#237eb8" offset="1"/></linearGradient><linearGradient id="l" x1="35.17" x2="6.67" y1="126.54" y2="72.04" xlink:href="#a"/><linearGradient id="k" x1="-15.76" x2="34.74" y1="47.75" y2="45.25" xlink:href="#a"/><linearGradient id="g" x1="-2.69" x2="48.31" y1="-5.5" y2="68" xlink:href="#b"/><linearGradient id="d" x1="19.29" x2=".63" y1="84.91" y2="46.91" gradientUnits="userSpaceOnUse"><stop stop-color="#64b0e3" offset="0"/><stop stop-color="#5ba9dd" offset=".23"/><stop stop-color="#4195cc" offset=".62"/><stop stop-color="#237eb8" offset=".99"/></linearGradient><linearGradient id="j" x1="80.1" x2="66.1" y1="69.71" y2="121.05" xlink:href="#a"/><linearGradient id="e" x1="9.44" x2="51.03" y1="51.86" y2="51.86" xlink:href="#c"/><linearGradient id="i" x1="104.89" x2="37.25" y1="124.75" y2="43.3" xlink:href="#a"/><linearGradient id="f" x1="-12.33" x2="15.67" y1="4.34" y2="43.67" xlink:href="#b"/><linearGradient id="h" x1="40.81" x2="-5.86" y1="85.24" y2="67.24" xlink:href="#a"/><linearGradient id="o" x1="63.58" x2="97.03" y1="35.55" y2="35.55" xlink:href="#b" gradientUnits="userSpaceOnUse"/><linearGradient id="n" x1="63.58" x2="97.06" y1="69.11" y2="69.11" xlink:href="#c" gradientUnits="userSpaceOnUse"/><linearGradient id="m" x1="119.64" x2="61.64" y1="76.15" y2="25.65" xlink:href="#a" gradientUnits="userSpaceOnUse"/></defs><g data-name="Ebene 1"><path fill="#237eb8" d="M109.957 89.214l-.113-71.26-31.62 31.59m31.468 78.134V91.735L72.725 54.768l-41.07-41.08L17.955 0v109.887l36.97-36.977" class="cls-1"/><path fill="url(#o)" d="M88.11 44.11l8.92-25.29-33.45 33.45" class="cls-2" transform="translate(17.957) scale(.94787)"/><path fill="url(#n)" d="M88.11 44.11l8.95 50.01-33.48-41.85" class="cls-3" transform="translate(17.957) scale(.94787)"/><path fill="url(#m)" d="M88.11 44.11l8.92-25.29.03 75.3" class="cls-4" transform="translate(17.957) scale(.94787)"/><path fill="url(#l)" d="M.11 93.94L0 116.22l38.98-39.31" class="cls-5" transform="translate(17.957) scale(.94787)"/><path fill="url(#k)" d="M9.44 32.78L0 0l.11 93.94" class="cls-6" transform="translate(17.957) scale(.94787)"/><path fill="url(#g)" d="M0 0l51.03 51.11L9.44 32.78" class="cls-7" transform="translate(17.957) scale(.94787)"/><path fill="url(#d)" d="M.11 93.94l38.87-17.03L5.66 43.57" class="cls-8" transform="translate(17.957) scale(.94787)"/><path fill="url(#j)" d="M97.15 97.15l-.12 37.89-52-64.1" class="cls-9" transform="translate(17.957) scale(.94787)"/><path fill="url(#e)" d="M9.44 32.78l41.59 18.33-6 19.83" class="cls-10" transform="translate(17.957) scale(.94787)"/><path fill="url(#i)" d="M51.03 51.11l46.12 46.04-52.12-26.21" class="cls-11" transform="translate(17.957) scale(.94787)"/><path fill="url(#f)" d="M45.03 70.94L9.44 32.78 5.66 43.57" class="cls-12" transform="translate(17.957) scale(.94787)"/><path fill="url(#h)" d="M97.03 135.04l-52-64.1L5.66 43.57" class="cls-13" transform="translate(17.957) scale(.94787)"/></g></svg>